<?xml version="1.0" encoding="utf-8"?>
<!-- Generator: Adobe Illustrator 18.1.1, SVG Export Plug-In . SVG Version: 6.00 Build 0)  -->
<svg version="1.1" id="Capa_1" xmlns="http://www.w3.org/2000/svg" xmlns:xlink="http://www.w3.org/1999/xlink" x="0px" y="0px"
	 viewBox="-133 135 32 32" enable-background="new -133 135 32 32" xml:space="preserve">
<g>
	<g id="search">
		<path d="M-110.1,155.1h-1.5l-0.5-0.5c1.8-2,2.9-4.8,2.9-7.7c0-6.6-5.3-11.9-11.9-11.9c-6.6,0-11.9,5.3-11.9,11.9
			s5.3,11.9,11.9,11.9c2.9,0,5.7-1.1,7.7-2.9l0.5,0.5v1.5l9.1,9.1l2.7-2.7L-110.1,155.1z M-121.1,155.1c-4.6,0-8.2-3.7-8.2-8.2
			s3.7-8.2,8.2-8.2c4.6,0,8.2,3.7,8.2,8.2S-116.5,155.1-121.1,155.1z"/>
	</g>
</g>
</svg>
