<?xml version="1.0" encoding="utf-8"?>
<!-- Generator: Adobe Illustrator 18.1.1, SVG Export Plug-In . SVG Version: 6.00 Build 0)  -->
<svg version="1.1" id="Layer_1" xmlns="http://www.w3.org/2000/svg" xmlns:xlink="http://www.w3.org/1999/xlink" x="0px" y="0px"
	 viewBox="0 0 207.1 187.8" enable-background="new 0 0 207.1 187.8" xml:space="preserve">
<g>
	<path fill="#6CB52D" d="M4.1,4.2L4.1,4.2C1.7,5.7,2,9.8,5,16.8c1,2,30.7,55.3,48.3,86.9c0,0,0.3,0.6,0.3,0.6
		c0.8,1.4,2.5,1.9,3.9,1.1l5.6-3c0,0,0.8-0.8,0.8-0.8c0.3-0.4,0.3-0.5,0.6-1.8c0-0.3-46.2-83-50.4-88.7C8.5,3.5,6.4,2.8,4.1,4.2z"/>
	<path fill="#7BBC42" d="M4.3,4.4C4.3,4.4,4.3,4.4,4.3,4.4c-2.3,1.4-2,5.4,1,12.3c1,2,30.7,55.3,48.3,86.9c0,0,0.3,0.6,0.3,0.6
		c0.7,1.2,2.3,1.7,3.5,1l5.6-3c0.1,0,0.8-0.7,0.8-0.7c0.3-0.3,0.3-0.3,0.5-1.6c0-0.4-46.3-83-50.3-88.5C8.4,3.8,6.4,3.1,4.3,4.4z"/>
	<path fill="#8AC457" d="M4.4,4.6L4.4,4.6c-2.2,1.3-1.8,5.2,1.1,12c1,2.1,34.1,61.5,48.3,86.9c0,0,0.3,0.6,0.3,0.6
		c0.6,1.1,2,1.5,3.2,0.9l5.6-3c0,0,0.7-0.7,0.7-0.7c0.2-0.2,0.2-0.2,0.4-1.5c-0.1-0.4-46.4-83-50.3-88.3C8.4,4.1,6.4,3.4,4.4,4.6z"
		/>
	<path fill="#98CB6C" d="M4.5,4.8L4.5,4.8C2.5,6.1,2.9,9.9,5.8,16.5c1,2,34.1,61.4,48.3,86.9c0,0,0.3,0.6,0.3,0.6
		c0.6,1,1.8,1.4,2.8,0.8l5.6-3c0,0,0.7-0.6,0.7-0.6c0.1-0.2,0.1-0.2,0.3-1.3c-0.1-0.5-46.7-83.2-50.2-88.1C8.3,4.5,6.4,3.7,4.5,4.8z
		"/>
	<path fill="#A7D281" d="M4.7,5.1L4.7,5.1C2.8,6.2,3.2,10,6,16.4c1,2,34.1,61.4,48.3,86.8c0,0,0.3,0.6,0.3,0.6
		c0.5,0.9,1.6,1.2,2.5,0.7l5.6-3c0,0,0.6-0.6,0.6-0.6c0.1-0.1,0.1-0.1,0.3-1.2C63.3,99.2,16.4,16,13.3,11.8C8.2,4.8,6.4,4,4.7,5.1z"
		/>
	<path fill="#B6DA96" d="M4.8,5.3L4.8,5.3c-2.2,1.3-0.4,6.7,1.4,11c1,2.1,37.2,67,48.3,86.8c0-0.1,0.3,0.6,0.3,0.6
		c0.4,0.7,1.4,1,2.1,0.6l5.6-3c0,0,0.5-0.5,0.5-0.5c0,0,0.2-1.1,0.2-1.1C63,99,16,16,13.1,11.9C8.1,5.1,6.4,4.3,4.8,5.3z"/>
	<path fill="#C4E1AB" d="M4.9,5.5L4.9,5.5c-2.1,1.3,0,7.3,1.5,10.7c1,2.1,37.2,67,48.2,86.8c0,0,0.3,0.6,0.3,0.6
		c0.3,0.6,1.1,0.8,1.8,0.5l5.6-3c0,0,0.5-0.5,0.5-0.5c0,0,0.1-0.9,0.1-0.9c-0.3-0.7-47.4-83.9-50.1-87.5C8,5.4,6.3,4.6,4.9,5.5z"/>
	<path fill="#D3E9C0" d="M5.1,5.7L5.1,5.7C3,7,5.5,13.4,6.7,16.1c1.1,2.1,40.4,72.7,48.2,86.8l0.3,0.6c0.3,0.5,0.9,0.7,1.4,0.4
		l5.6-3c0,0,0.4-0.4,0.4-0.4c0,0,0.1-0.8,0.1-0.8c-0.4-0.8-47.4-83.8-50-87.4C7.9,5.8,6.3,5,5.1,5.7z"/>
	<path fill="#E2F0D5" d="M5.2,5.9L5.2,5.9c-2,1.2,1.1,8.6,1.7,10c1.2,2.3,48.1,86.5,48.5,87.3c0.2,0.4,0.7,0.5,1.1,0.3l5.6-3
		c0.1-0.1,0.3-0.4,0.3-0.4c0-0.1,0-0.6,0-0.6c-0.5-0.9-47.3-83.5-50-87.2C7.9,6.1,6.3,5.3,5.2,5.9z"/>
	<path fill="#F0F8EA" d="M5.3,6.2L5.3,6.2c-1.9,1.2,1.8,9.6,1.8,9.7c1.2,2.3,48.1,86.5,48.5,87.3c0.1,0.2,0.5,0.3,0.7,0.2l5.6-3
		c0,0,0.3-0.3,0.3-0.3c0,0,0-0.4,0-0.4c-0.5-0.8-47.3-83.4-49.9-87.1C7.5,6.1,6.1,5.7,5.3,6.2z"/>
	<path fill="#F8FBF4" d="M5.5,6.4c-1.6,1,1.6,8.7,1.9,9.4l0,0c1.2,2.3,48,86.4,48.5,87.3c0.1,0.1,0.2,0.2,0.4,0.1l5.6-3
		c0.1,0,0.1-0.1,0.1-0.2c0-0.1,0-0.1,0-0.2C60,96.4,14.7,16.3,12,12.7C7.4,6.4,6.1,6,5.5,6.4z"/>
	<path fill="#FFFFFF" d="M56.2,102.9c0,0-47.4-85-48.5-87.3c-1.2-2.3-6.5-17.4,4.2-2.8c2.7,3.6,49.9,87.1,49.9,87.1L56.2,102.9z"/>
	<path fill="#D0D8B2" d="M65.8,55.9c0,0,16.1,8.8,21,17.4l-3.6,4.7l5.7,0.6l1.5,2.9c0,0-10,10.6,11.1,17.5l18.3,6.5l34.4-21.8
		c0,0-6.6-5.2-8-12c0,0,6.7-4.5,9.2-9.9c2.5-5.4,5.5-18.5,14.9-25.1c0,0-17.2-0.1-28.5,14.6l-4.5,2L118.4,46c0,0-6.4-2.6-13.4,5.7
		c-7,8.3-8.3,10.2-8.3,10.2S72.1,53.5,65.8,55.9z"/>
	<path fill="#FFFFFF" d="M89.2,78.5l1.8,3.5c0,0,8.1,0.7,14.1-1.7l0.3-1l0.7-1.6C106.1,77.7,94.4,79.2,89.2,78.5z"/>
	<path fill="#FFFFFF" d="M112.1,75.1c0,0,0.4,3.6,7.2,2.8c6.8-0.8,12.5-5.2,12.5-5.2l-0.5-3c0,0-7.5-2.4-12.1,0.9
		C114.5,73.9,112.1,75.1,112.1,75.1z"/>
	<path fill="#EDEDE4" d="M101.4,99l-6.7,6.3l3.7,2.4l-5.6,5.6l-1.5-3.7l-25.8,12.2c0,0,7.8,29.9,16.3,32.6c0,0,12.1-3.5,21.5-13.4
		c0,0-2.4,17.4-16.1,28.7c0,0,4.3,5.9,16.3,3.9c0,0,13-41.2,3-72.5L101.4,99z"/>
	<path fill="#D6D4CB" d="M70.2,136.9c0,0,7.1,19.2,12.3,16.7c5.1-2.5,3.3-24.3,1.2-31.3C83.7,122.4,69.6,126.2,70.2,136.9z"/>
	<path fill="#AD714F" d="M106.9,101.4l12.8,4l8.9-6.3c0,0-20.2,43.6,14.7,77l-25.7-0.2l0.5-3.2l-14.4-0.6
		C103.7,172.1,116.5,135.1,106.9,101.4z"/>
	<path fill="#EDEDE4" d="M158.9,82.3c0,0-10.4-0.2-17.8,5c-7.4,5.2-23.2,16.3-16.7,55.8c10.4,41.4,42.1,47.5,69.7,38.2l-10.4-13.4
		l-3.9-0.2c0,0-11.3-10.8-12.4-26.7c0,0,14.1,9.6,20.4,1.1c6.3-8.5,11.3-21.1,8.5-56.9c0,0-6.1,9.5-12.6,2.8c0,0-13,10.8-22.6-6.1
		L158.9,82.3z"/>
	<path fill="#D6D4CB" d="M159.9,103.6c0,0,19.4,5.9,28.2-13.1c0,0,7.1-0.7,8.3-5.3c0,0,6,42.9-9.9,55.3
		C166.6,147.9,156,112.2,159.9,103.6z"/>
	<path fill="#AD714F" d="M161.1,81.9c0,0,8.2,16.2,21.7,6.4l4.9,1.6c0,0-4.1,17.8-28.4,13.5C159.3,103.4,159.9,84.7,161.1,81.9z"/>
	<path fill="#D0D8B2" d="M57.4,121.3l6,8.3h1.5l0.2,5.5c0,0,5.4,2.1,6.6,0.1c1.2-2,2.8-4.3,4.3-4.3c0,0,1-3.4-2.4-6.5l3.7-0.1
		l4.2,6.3c0,0,3.3-5.6,2.1-10.9c-1.1-5.3-7.2-11.5-7.2-11.5s-3-3.2-10.9,3.2v3.2C65.6,114.6,60.3,114.9,57.4,121.3z"/>
	<path fill="#D0D8B2" d="M160.9,80c0,0,6.3,19.9,22.8,8c0,0,7.5,8.8,14.5-7.4c0,0,6.5-2.9,5.7-7.5c-0.7-4.6-1.7-13.8-1.7-13.8
		l-15.4-1.9l0.6-2.2c0,0,5.5,0.1,8.9-10.5l4.3-0.7c0,0-1-5.7-9.6-6.3c-8.6-0.6-14.1,4.4-18.2,15.8C168.7,64.9,160.9,80,160.9,80z"/>
	<path fill="#A89656" d="M65.7,55.9c0,0,17.6,10.7,21.1,17.1l6-4.2C92.8,68.8,81.1,57.7,65.7,55.9z"/>
	<path fill="#A89656" d="M143.2,66.5c0,0,7-26.1,25.9-29.5c0,0-3.7,4.1-4.3,4.8c-0.6,0.7-8.8,17.6-10.9,19.4
		C151.8,63.1,148.2,68.1,143.2,66.5z"/>
	<path fill="#A89656" d="M124.2,77c-3.2,1-7.3,1.3-10.8,0.3c0,0,5.4,6.4,12.3,3.3c6.8-3.1,6-7.6,6-7.6S128.6,75.6,124.2,77z"/>
	<path fill="#A89656" d="M91.1,82c0,0,9.5,0.3,14.1-1.7l-0.1,0.4c0,0-3.2,0.4-2.1,2.2l1.1,0.8l-1.7,2.7
		C102.4,86.5,95.9,86.9,91.1,82z"/>
	<path fill="#A89656" d="M120.1,70.3c0,0,6.1-3.1,11.2-0.6c0,0-0.3-2.8-1.1-4.5C130.2,65.2,125.1,66.7,120.1,70.3z"/>
	<path fill="#504B32" d="M119.5,70.7c0,0-1.8,4.8,4.3,6.3c0,0,5.1-1.9,6.3-2.9c0,0,2.1-1.6-1.3-5.3
		C128.8,68.8,123.4,67.9,119.5,70.7z"/>
	<path fill="#504B32" d="M94.3,78.5c0,0,8.5,0.5,11.5-0.6l-0.6,2.5c0,0-6.1,1.9-9,1.5C96.2,81.9,94.2,80.5,94.3,78.5z"/>
	<path fill="#D6DFD8" d="M132.5,56.7c0,0,5.5,1.4,6.2,3l3.1-8.4C141.8,51.3,137.8,52.6,132.5,56.7z"/>
	<path fill="#D6DFD8" d="M156.1,60.7c0,0,4,4,9.3,1.8c0,0-2.1,6.4-9.6,9.8c0,0,4.6,3.1,7.9,2l-4.3,7.4L153,83c0,0-6.1-5.3-6.9-11.3
		C146.1,71.6,153.1,67.8,156.1,60.7z"/>
	<path fill="#CBD8E0" d="M55.1,104.5l1.9,3.2l2.1,0.3l-0.5,1.9l2.8,6.1l4.7-1.7l-0.5-2.9l3.8-2.3l-1.9-3.6l0.3-2.5l-3.2-5.6h-2.9
		l-0.6,1.3l0.7,2.1C61.7,100.8,57.8,99.7,55.1,104.5z"/>
	<path fill="#CBD8E0" d="M72.5,133.8l3.7,5.8c0,0,4.9,0.1,7.9-5.3l-6.3-10.2l-4.1,0.3c0,0,2.8,2.3,2.8,6.6
		C76.4,131.1,74,129.8,72.5,133.8z"/>
	<g>
		<path fill="#1D1D1B" d="M136.9,53.6c0,0-12.1-6.3-21.7-6.6c-9.6-0.4-21.9,21.9-21.9,21.9c-6.5,3.7-9.2,8.8-9.2,8.8s7.8,1.2,20.3,0
			c0,0-0.6-2.9-5.7-6.1c0,0,12.1,6.8,4.9,7.2c-7.2,0.4-21.1-0.4-21.1-0.4s3.7-6.6,10.4-10.6c0,0,12.7-26,24.4-23.1
			c11.7,2.9,21.6,7.8,21.6,7.8L136.9,53.6z"/>
		<path fill="#1D1D1B" d="M96.3,62.7c0,0-12.9-6.6-29.9-6.8c0,0,14.9,7.8,20.9,16.6l-0.4,1c0,0-9.8-11.7-21.9-17.2
			c0,0,0-4.9,32.4,4.9L96.3,62.7z"/>
		<path fill="#1D1D1B" d="M66.4,55.9c0,0,15.2,2.2,26.8,12.3l-0.8,0.6C92.4,68.8,84.7,61,66.4,55.9z"/>
		<path fill="#1D1D1B" d="M121.7,62.2c0,0-11.1,6.3-11.3,12.7c0,0,0.6,1.2,5.3-2.5c4.7-3.7,13.7-8.4,17.6-7.2c0,0-4.3,0-11.3,4.3
			c-7,4.3-14.1,10.4-12.3,4.3C111.3,67.6,119.1,62.7,121.7,62.2z"/>
		<path fill="#1D1D1B" d="M114.2,66.6c0,0-0.8-4.1,7.2-10.4c0,0-8.4,4.7-8.2,11.9L114.2,66.6z"/>
		<path fill="#1D1D1B" d="M89.2,93.4C82.9,88.7,90,81.1,90,81.1s0.3,0.5,0.8,0.7c0,0-8.4,8.5,6,14.6c14.5,6.1,21.2,8,21.2,8
			S97.6,99.7,89.2,93.4z"/>
		<path fill="#1D1D1B" d="M88.7,78.6c0,0,1.2,7.6,12.6,8l1.2-0.3c0,0-12-0.7-13.1-7.8L88.7,78.6z"/>
		<path fill="#1D1D1B" d="M100.6,67c0,0,3.7,14.9,9.4,9l-0.2-1.1C109.8,75,106.4,81,100.6,67z"/>
		<path fill="#1D1D1B" d="M106.9,75.9c0,0-2.5-5.8,2.8-9.9C109.8,66,102.3,70,106.9,75.9z"/>
		<path fill="#1D1D1B" d="M106.9,67.9c0,0-1.1-6.2,4.4-10.5c0,0-6.7,3.2-4.8,11.7L106.9,67.9z"/>
		<path fill="#1D1D1B" d="M107.8,60.7c0,0-0.2-4.1,3.4-8.2c0,0-5.1,3.2-3.9,9.7L107.8,60.7z"/>
		<path fill="#1D1D1B" d="M111.7,75.5c0,0,3.7,8.5,14.2,5.3c10.5-3.2,4.4-15.4,4.4-15.4s4.3,11.9-4.6,14.9c-8.9,3-13.5-5.5-13.5-5.5
			L111.7,75.5z"/>
		<path fill="#1D1D1B" d="M114.9,78.7c0,0,2.5,7.1,16.7,5C131.6,83.7,120.6,84.6,114.9,78.7z"/>
		<path fill="#1D1D1B" d="M113.5,77.7c0,0,1.9,9,16.3,15.4h0.9c0,0-13.8-7.4-16.3-15.1L113.5,77.7z"/>
		<path fill="#1D1D1B" d="M138.8,61.2c0,0-2.7-8.6,7.4-15.7c10-7.1,16.7-8.8,25.5-9.3c0,0-9.1,4.7-13.7,20.1
			c-4.7,15.4-14.5,16.7-14.5,16.7s0,6.4-5.1,9.6c0,0,3.2-3.4,4.7-10.8c0,0,8.8-1,13-13.5c4.2-12.5,10-19.1,13-20.8
			C168.9,37.4,142.9,38.9,138.8,61.2z"/>
		<path fill="#1D1D1B" d="M140.6,51.8c0,0-4.3,0.5-9.6,5.1c0,0,7.1,1,7.7,3.3l0.2-0.8c0,0-1.8-2.4-5.6-2.9
			C133.3,56.5,137.8,52.7,140.6,51.8z"/>
		<path fill="#1D1D1B" d="M134.9,54.8c0,0,3.6,1.2,4.1,2C139,56.8,138.2,54.2,134.9,54.8z"/>
		<path fill="#1D1D1B" d="M104,83.9c0,0-2.4,3.2-2.8,7.2c0,0,4.9,14.3,17.7,10c0,0-10.9,6.4-18.5-9.2C100.4,92,99.4,87.8,104,83.9z"
			/>
		<path fill="#1D1D1B" d="M100.6,91.4c0,0,4.9-0.6,7.8,1.3c0,0,7.9-6.3,13.3-5.2l-1.2-1c0,0-6.8-0.3-12.1,5.5c0,0-3.2-1.9-7.5-1.4
			L100.6,91.4z"/>
		<path fill="#1D1D1B" d="M115.1,93.7c0,0-6,0.6-4,4.2c2,3.6,10.4,2.6,11.1,2c0,0-7.4,4.2-12.3-1.9
			C107.2,93.9,115.1,93.7,115.1,93.7z"/>
		<path fill="#1D1D1B" d="M109.3,112.9l-0.1,1.6c0,0,15.5-11.1,17.6-13.2c2.2-2,2.2-3.5,2.2-3.5S113.8,110.7,109.3,112.9z"/>
		<path fill="#1D1D1B" d="M145.8,71.9c0,0,1.8,8.1,6.5,11l2.2-0.1c0,0-6.3-4-7.9-11.1L145.8,71.9z"/>
		<polygon fill="#1D1D1B" points="122.3,95.2 127.9,98.8 127.3,99.5 		"/>
		<path fill="#1D1D1B" d="M120.3,97.6c0,0,2.1,1.8,4.1,2.1C124.5,99.8,122,101.1,120.3,97.6z"/>
		<polygon fill="#1D1D1B" points="110.1,90.7 109.4,87.6 111.1,90 		"/>
		<polygon fill="#1D1D1B" points="114.7,88.7 118,90 116.1,88.2 		"/>
		<polygon fill="#1D1D1B" points="110.1,90.7 114.2,92 111.6,90.2 		"/>
		<path fill="#1D1D1B" d="M111.4,80c0,0-4.5-4-6.6,0.5c0,0-4.3,0.8-1.3,3.5c0.7,0.6,1.3,0.2,1.6-1.2c0,0,0.2,2,2.5,2.3
			c0,0,2.5-5.1,3.8-2.3c0,0,3.6,0.8,3.8-2C115.4,78,111.4,80,111.4,80z M114.6,80.8c-0.4,1.9-2.7,1.6-2.7,1.6
			c-1.7-3.1-4.6,2.2-4.6,2.2c-2.3-1.1-2.1-2.6-2.1-2.6s-0.8,1.6-1.3,1.5c-2.5-1.8,1.1-2.5,1.1-2.5c1.5-4.2,6.5-0.5,6.5-0.5
			C113.1,79.8,115,78.9,114.6,80.8z"/>
		<path fill="#1D1D1B" d="M106.4,77.3c0,0-0.8,1-0.8,2.3l-0.3,0.4C105.4,80,104.8,78.6,106.4,77.3z"/>
		<path fill="#1D1D1B" d="M107.9,77.1c0,0,0.9-0.3,1.9,0.5C109.8,77.6,109.4,75.9,107.9,77.1z"/>
		<path fill="#1D1D1B" d="M117.4,72c0,0,6.8-4.3,14.3-1.9v-0.6C131.6,69.4,125.3,65.8,117.4,72z"/>
		<path fill="#1D1D1B" d="M90.3,81.8c0,0,9.6,0.2,14.5-1.3C104.8,80.5,94,83.9,90.3,81.8z"/>
		<path fill="#1D1D1B" d="M91.2,82.4c0,0,4.9,3.2,11.7,0.4l0.4,0.6C103.3,83.5,95,86.5,91.2,82.4z"/>
		<path fill="#1D1D1B" d="M113.5,77.1c0,0,10.2,2.8,17.9-4.9l0.2,1.1C131.6,73.3,121.4,81.4,113.5,77.1z"/>
		<path fill="#1D1D1B" d="M115.3,79c0,0,10.2,2.1,15.3-2.3C130.6,76.7,125.3,82.6,115.3,79z"/>
		<path fill="#1D1D1B" d="M94,78.8c0,0,0.4,3,2.3,3.2h1.1c0,0-2.8-0.4-2.6-3.4L94,78.8z"/>
		<path fill="#1D1D1B" d="M118.7,71.3c0,0-0.6,4,4.3,6l1.3-0.4c0,0-5.6-0.6-4.5-6.6L118.7,71.3z"/>
		<path fill="#1D1D1B" d="M128.9,69.2c0,0,2.1,3.6,0.6,4.9l1.1-1C130.7,73.1,130.4,69,128.9,69.2z"/>
		<path fill="#1D1D1B" d="M76.2,58.5c0,0,1.3,1.9,0.8,4.7l0.8,0.8C77.8,64,78.7,61.3,76.2,58.5z"/>
		<path fill="#1D1D1B" d="M79.6,60c0,0,1.3,2.4,0.8,5.9l0.8,1C81.2,66.9,82.1,63.4,79.6,60z"/>
		<path fill="#1D1D1B" d="M83.4,62.3c0,0,1.6,3,1,7.4l1,1.3C85.4,70.9,86.6,66.6,83.4,62.3z"/>
		<path fill="#1D1D1B" d="M142.9,66.9c0,0,3-23.1,26.3-30.1c0,0-20.2,6.1-25.4,29.8c0,0,7.3-0.3,12.8-9.1
			C156.6,57.5,151,69.1,142.9,66.9z"/>
		<path fill="#1D1D1B" d="M146,58.7c0,0,4.6-0.1,4.6,5.7l0.7-0.4C151.2,64,150.6,56.6,146,58.7z"/>
		<path fill="#1D1D1B" d="M149.8,51.6c0,0,6.9-0.3,6.8,6.5l0.5-1.2C157.1,57,156.2,49.4,149.8,51.6z"/>
		<path fill="#1D1D1B" d="M154.1,46.7c0,0,4.2,0.5,4.8,4.8l0.5-0.7C159.4,50.8,159.2,45.8,154.1,46.7z"/>
		<path fill="#1D1D1B" d="M100.8,98.4l-7.9,7.4c0,0,11.2,2.2,12.9,14.6c0,0,0.2-10.4-10.1-15.4l6.6-6L100.8,98.4z"/>
		<polygon fill="#1D1D1B" points="97.8,107.2 92.2,112 92.6,113.5 99.1,108 		"/>
		<path fill="#1D1D1B" d="M81,113.3c0,0,4.6,0.2,10.5-5.3c0,0,4.2,17.9,8.2,16.2c0,0-0.2-5.2-0.9-6.8c-0.8-1.6,6.8,13.8,0.2,9
			c-6.6-4.9-7.7-16-7.7-16s-5.5,4.2-9.7,4.4L81,113.3z"/>
		<path fill="#1D1D1B" d="M159,81.4c0,0-25.2,0.6-33.8,23.9c-6.3,17.1-4.6,61.5,25.5,76.1c10.9,5.3,25.9,5.4,45.1,0.6
			c0,0-9.4-9.9-11.8-15.1c0,0-34.8,3.9-48.6-20c0,0,7.7,23.7,47.3,21.2c0,0,6.6,10.4,10.1,12.7c0,0-44,12.3-59.6-17.8
			c-15.6-30-15.4-77.8,25.5-80.5L159,81.4z"/>
		<path fill="#1D1D1B" d="M124.2,139.9c0,0-1.7-13.8,4.9-23.6c6.6-9.8,24.8-22,32.2-36.3c7.4-14.3,13.1-27,14.8-31.6
			c1.7-4.6,4.9-9.4,15.4-9.4c6.1,0,8.6,4.9,8.6,4.9l-4.9-0.2c0,0,0.5,13.5-13.4,9.6c0,0,1.4,2.4,7.5,1.6c6.1-0.8,7.7-10.1,7.7-10.1
			l5.5,0.2c0,0-0.8-7.1-12-7.5c0,0-12.1-2.8-18.4,15.1c-6.3,17.9-15.1,34-27.8,45.9C131.8,110.3,118.9,120.5,124.2,139.9z"/>
		<path fill="#1D1D1B" d="M129.7,108.9c0,0,8.8-14.2,22.3-16.7l1.9-2.4C154,89.9,139.2,91.6,129.7,108.9z"/>
		<path fill="#1D1D1B" d="M122.3,69.5c0,0-1.6,1.5-0.4,3.5c1.3,2,3.3,2.1,5,1.4c1.8-0.7,3.4-3.4,1.1-5.5
			C128,68.9,124.8,68.9,122.3,69.5z"/>
		<path fill="#1D1D1B" d="M96.5,78.7c0,0,0,3.1,3.6,2.9c3.6-0.2,3-3,3-3L96.5,78.7z"/>
		<circle fill="#FFFFFF" cx="125.7" cy="70.7" r="1.6"/>
		<path fill="#FFFFFF" d="M99,78.8c-0.1,0.2-0.1,0.3-0.1,0.5c0,0.8,0.6,1.4,1.4,1.4c0.8,0,1.4-0.6,1.4-1.4c0-0.2,0-0.4-0.1-0.5
			L99,78.8z"/>
		<path fill="#1D1D1B" d="M104.4,130.1c0,0-0.2,25.7-18.7,39.7c0,0,3.5,5.6,17.9,4.7c0,0,13-34,3.9-73.3l-1.9-1
			c0,0,10.9,31.7-2.9,72.6c0,0-9.9,0.6-14.4-3.1C88.3,169.6,106.2,155.6,104.4,130.1z"/>
		<path fill="#1D1D1B" d="M140.4,142.6c0,0,10.3,10.5,19.8,9.1c0,0-9.3-0.2-18.5-9.5L140.4,142.6z"/>
		<path fill="#1D1D1B" d="M121.5,153.3c0,0-0.8,11.3-5.6,23c0,0,16.5,0.4,28,0.8l-1.9-1.8c0,0-18.5-1-23.3-0.2
			C118.6,175,123.1,160.4,121.5,153.3z"/>
		<path fill="#1D1D1B" d="M103.4,172.7c0,0,10.9,0,13.8,0.6l1.2-1.6c0,0-7.2-0.6-14.6-0.6L103.4,172.7z"/>
		<path fill="#1D1D1B" d="M156,60.2c0,0,5.4,3.2,10,1.7c0,0-3,8.8-9.3,10.4c0,0,4.1,2.1,7.2,1.3l-0.7,1.1c0,0-3.9,1.7-8.4-2.7
			c0,0,6.7-2.2,9.9-8.8c0,0-5.7,1.4-9-2.1L156,60.2z"/>
		<path fill="#1D1D1B" d="M156.1,65.9c0,0,4.8,1.6,7.6,0.1l-1.6,1.7C162.2,67.7,157.7,67.9,156.1,65.9z"/>
		<path fill="#1D1D1B" d="M147.8,70.9c0,0,3.4,7.5,11.7,9.5l0.8-0.3c0,0-8.6-2.2-12.1-9.5L147.8,70.9z"/>
		<path fill="#1D1D1B" d="M153.3,74.9c0,0,4.7,3.7,8.8,1.9l0.3-0.7C162.3,76.2,158.7,77.7,153.3,74.9z"/>
		<path fill="#1D1D1B" d="M145.1,99.4c0,0-0.7,10.1,8.5,23.3c0,0-7.6-11.1-6.5-25.2L145.1,99.4z"/>
		<polygon fill="#1D1D1B" points="110.4,133.3 123.3,138.6 123.3,137.3 110.2,131.6 		"/>
		<polygon fill="#1D1D1B" points="109.9,118.9 123,120.1 123.3,118.7 109.8,117.2 		"/>
		<polygon fill="#1D1D1B" points="110.1,123.8 122.5,126.2 122.7,125.1 109.8,122.3 		"/>
		<polygon fill="#1D1D1B" points="110.5,128.2 122.4,129.9 122.5,129 110.4,126.7 		"/>
		<path fill="#1D1D1B" d="M153.1,90.5c0,0-4.8,46.8,22.1,54.9c26.9,8.2,23.5-53.9,21.4-60.1l-0.9,1.5c0,0,6.5,52.7-15.1,57.7
			c-25.1-0.1-28-43.6-25.4-57.3L153.1,90.5z"/>
		<path fill="#1D1D1B" d="M160.3,80c0,0-11.5,55.5,20.1,61.9c16.8,2.4,16.3-29.1,16.3-29.1s-3.9,32.8-17.7,27.8
			c-13.8-5-24.6-20.3-16.2-64.7L160.3,80z"/>
		<path fill="#1D1D1B" d="M159,103.9c0,0,20.9,5.6,29.5-13.2l-1.2-0.9c0,0-8.9,19.4-28.2,12.6L159,103.9z"/>
		<path fill="#1D1D1B" d="M161.3,82.8c0,0,9.1,18,23,4.9l-1.9-0.3c0,0-12.6,11.2-21-7.4L161.3,82.8z"/>
		<path fill="#1D1D1B" d="M160.7,86.8c0,0,6.2,12.2,21.2,11.7l1.3-1.2c0,0-16.5,1.6-22.6-12.2V86.8z"/>
		<path fill="#1D1D1B" d="M159.8,91.1c0,0,5.5,10.7,11.3,12.6l3-0.9c0,0-9.3-2.1-14.2-13.7V91.1z"/>
		<path fill="#1D1D1B" d="M166.9,93.3c0,0,9.9,6.7,19.9-0.6l0.7-1.6C187.5,91.1,179.4,98.4,166.9,93.3z"/>
		<path fill="#1D1D1B" d="M169.1,87.6c0,0-7.9-11,5.8-13.8c9.6-1.5,12.8,0.3,12.8,0.3l-3.6,3.7c0,0,4.3,3.1,3.3,6.2
			c-1,3.1-4.6,5.5-8.8,3.1c0,0,5.6,0.9,7-2.5c1.3-3.4-2.5-5.6-2.5-5.6s-3.3-1.2,1.5-3.6c0,0-22.3-4-15.4,10.4
			C169.1,85.8,169.9,87,169.1,87.6z"/>
		<path fill="#1D1D1B" d="M183.1,88.3c0,0,6.1,6.2,12.6-1.5c5.8-6.7,1.8-11.9,1.8-11.9l-4.9-0.3c0,0-4.6-4.2-0.6-8.8
			c0,0-6.8,5.2,0.4,10.1l3.7,0.4c0,0,3,7.3-4.9,11.9c-4.2,2.8-6.5-1.6-6.5-1.6L183.1,88.3z"/>
		<polygon fill="#1D1D1B" points="189.5,54.5 181.8,65.7 186.8,54.6 		"/>
		<path fill="#1D1D1B" d="M187.1,56.8c0,0,8.9,1.9,16.5,0.9c0,0-1.5,5.2-0.1,8.5c1.3,3.3,3.4,9.6-5.2,16v-2.4c0,0,5.6-3.6,4.6-8.9
			c-1-5.3-1.3-10.7-1.3-10.7s-9.9,0.3-14.7-2.4L187.1,56.8z"/>
		<path fill="#1D1D1B" d="M166.2,139.8c0,0,0.9,17.2,11.9,27.8h2.4c0,0-12.5-12.9-12.8-26.7L166.2,139.8z"/>
		<path fill="#1D1D1B" d="M68.7,136.4c0,0,8,20.9,14.4,18.7c6.4-2.2,16.6-8,20.6-14.5l0.1-1.3c0,0-20.3,22.1-26.4,11
			c-6.1-11.1-7-13.5-7-13.5L68.7,136.4z"/>
		<path fill="#1D1D1B" d="M83.7,125.9c0,0,4.2,24.9-1.8,27.8c0,0,5.9,2.1,4.6-15.3c-1.3-17.4-2.5-17.7-2.5-17.7L83.7,125.9z"/>
		<path fill="#1D1D1B" d="M82,130c0,0,4-8.6,0.6-14.2c-3.4-5.6-6.1-8.6-6.1-8.6s-7.1-0.9-11.7,4l0.6,6.2c0,0,5,3,5.9,7.3h7.3
			l-1.6-2.8c0,0,4-3.7-1-9.6l-1.3,0.3c0,0,5.2,4.9,1.2,8.6l1.3,2.2l-4.6,0.3c0,0-1-4.6-5.5-6.4l-0.7-5.9c0,0,4.8-3.7,9.8-2.8
			c0,0,6.2,7.9,6.5,9.6C82.9,119.9,83.2,127,82,130z"/>
		<path fill="#1D1D1B" d="M65.7,114.1c0,0-4.9-0.1-9.5,7.3c0,0,6.2,6.1,6.4,8.6h2.1l0.1-0.9l-1.3-0.1c0,0-1.3-4.2-5-6.7
			c0,0,0.3-4.6,7.4-7L65.7,114.1z"/>
		<path fill="#1D1D1B" d="M70.4,121.7c0,0-4.6,1-7,4.3c0,0,1.8,4.6,1.3,7.4l-0.3,2.2c0,0,6.8,3.9,8.5-1.9c0,0,1.2-2.4,3.6-2.2
			c0,0,1-5-2.8-7.4l-1.5,0.1c0,0,3.6,2.2,3.7,6.1c0,0-3,0.4-3.6,2.1c-0.6,1.6-0.7,3.9-3.7,3.1c-3-0.7-3-0.7-3-0.7s0.6-6.1-0.7-8.2
			c0,0,1.8-2.7,6.2-3.7"/>
		<path fill="#1D1D1B" d="M77.7,122.7l3.3,0.4l-3.4-2.4l-1,0.3C76.5,121.1,75.9,122,77.7,122.7z"/>
		<path fill="#1D1D1B" d="M61.1,116.9l-3.4-6.7c0,0,2.8-6.7,10.1-5l2.2,3.3l-1.2,0.6l-1.6-2.8c0,0-4.5-1.9-8.3,4.2l3.3,5.6
			L61.1,116.9z"/>
		<path fill="#1D1D1B" d="M59.2,108.5l-2.8-0.6l-1.8-3.6c0,0,1.8-3.9,6.4-4L60.3,99l0.9-1.8l3.4-0.3l3.6,5.9l-0.6,2.8h-0.9l0.6-2.8
			l-3-5l-2.1-0.1l-1,1l3.9,6.5h-1l-2.8-4.5c0,0-3.7,0.4-5.6,3.6l1.6,2.8l3,0.9L59.2,108.5z"/>
		<path fill="#1D1D1B" d="M57.2,107.2c0,0,1.9-3.3,6.1-3.6v-0.7C63.3,102.8,57.5,103.3,57.2,107.2z"/>
		<path fill="#1D1D1B" d="M78.2,123.9H77l6.5,10.4c0,0-6.2-0.1-7.6,4.6l-3-5.2l-0.7,0.9l3.4,5.5c0,0,4.9,0.9,8.8-5.6L78.2,123.9z
			 M76.7,139.4c0,0,1-4.6,6.4-4.3C83.1,135.1,82.3,137.7,76.7,139.4z"/>
		<path fill="#1D1D1B" d="M74.2,136.5c0,0,2.1-5.5,8.5-5l-0.9-0.9c0,0-5.5-0.3-8.2,5L74.2,136.5z"/>
		<path fill="#1D1D1B" d="M76.4,129c0,0,1.5-0.9,3.4-0.9l-0.3-0.9c0,0-2.2,0.1-3.4,0.6L76.4,129z"/>
		<path fill="#1D1D1B" d="M92.2,86.6c0,0,2.8,0.9,6.9-0.3l-0.7-0.4C98.4,85.9,95,86.7,92.2,86.6z"/>
		<polygon fill="#1D1D1B" points="106.4,100.9 121.4,105.1 120,105.8 106.8,101.8 		"/>
	</g>
</g>
</svg>
