<svg xmlns="http://www.w3.org/2000/svg" viewBox="0 0 207.1 187.8"><path fill="#6CB52D" d="M4.1 4.2C1.7 5.7 2 9.8 5 16.8c1 2 30.7 55.3 48.3 86.9l.3.6c.8 1.4 2.5 1.9 3.9 1.1l5.6-3 .8-.8c.3-.4.3-.5.6-1.8 0-.3-46.2-83-50.4-88.7-5.6-7.6-7.7-8.3-10-6.9z"/><path fill="#7BBC42" d="M4.3 4.4c-2.3 1.4-2 5.4 1 12.3 1 2 30.7 55.3 48.3 86.9l.3.6c.7 1.2 2.3 1.7 3.5 1l5.6-3c.1 0 .8-.7.8-.7.3-.3.3-.3.5-1.6 0-.4-46.3-83-50.3-88.5-5.6-7.6-7.6-8.3-9.7-7z"/><path fill="#8AC457" d="M4.4 4.6c-2.2 1.3-1.8 5.2 1.1 12 1 2.1 34.1 61.5 48.3 86.9l.3.6c.6 1.1 2 1.5 3.2.9l5.6-3 .7-.7c.2-.2.2-.2.4-1.5-.1-.4-46.4-83-50.3-88.3-5.3-7.4-7.3-8.1-9.3-6.9z"/><path fill="#98CB6C" d="M4.5 4.8c-2 1.3-1.6 5.1 1.3 11.7 1 2 34.1 61.4 48.3 86.9l.3.6c.6 1 1.8 1.4 2.8.8l5.6-3 .7-.6c.1-.2.1-.2.3-1.3-.1-.5-46.7-83.2-50.2-88.1-5.3-7.3-7.2-8.1-9.1-7z"/><path fill="#A7D281" d="M4.7 5.1C2.8 6.2 3.2 10 6 16.4c1 2 34.1 61.4 48.3 86.8l.3.6c.5.9 1.6 1.2 2.5.7l5.6-3 .6-.6c.1-.1.1-.1.3-1.2-.3-.5-47.2-83.7-50.3-87.9-5.1-7-6.9-7.8-8.6-6.7z"/><path fill="#B6DA96" d="M4.8 5.3c-2.2 1.3-.4 6.7 1.4 11 1 2.1 37.2 67 48.3 86.8 0-.1.3.6.3.6.4.7 1.4 1 2.1.6l5.6-3 .5-.5.2-1.1C63 99 16 16 13.1 11.9c-5-6.8-6.7-7.6-8.3-6.6z"/><path fill="#C4E1AB" d="M4.9 5.5c-2.1 1.3 0 7.3 1.5 10.7 1 2.1 37.2 67 48.2 86.8l.3.6c.3.6 1.1.8 1.8.5l5.6-3 .5-.5.1-.9c-.3-.7-47.4-83.9-50.1-87.5C8 5.4 6.3 4.6 4.9 5.5z"/><path fill="#D3E9C0" d="M5.1 5.7C3 7 5.5 13.4 6.7 16.1c1.1 2.1 40.4 72.7 48.2 86.8l.3.6c.3.5.9.7 1.4.4l5.6-3 .4-.4.1-.8c-.4-.8-47.4-83.8-50-87.4C7.9 5.8 6.3 5 5.1 5.7z"/><path fill="#E2F0D5" d="M5.2 5.9c-2 1.2 1.1 8.6 1.7 10 1.2 2.3 48.1 86.5 48.5 87.3.2.4.7.5 1.1.3l5.6-3c.1-.1.3-.4.3-.4v-.6c-.5-.9-47.3-83.5-50-87.2-4.5-6.2-6.1-7-7.2-6.4z"/><path fill="#F0F8EA" d="M5.3 6.2c-1.9 1.2 1.8 9.6 1.8 9.7 1.2 2.3 48.1 86.5 48.5 87.3.1.2.5.3.7.2l5.6-3 .3-.3v-.4c-.5-.8-47.3-83.4-49.9-87.1-4.8-6.5-6.2-6.9-7-6.4z"/><path fill="#F8FBF4" d="M5.5 6.4c-1.6 1 1.6 8.7 1.9 9.4 1.2 2.3 48 86.4 48.5 87.3.1.1.2.2.4.1l5.6-3c.1 0 .1-.1.1-.2v-.2c-2-3.4-47.3-83.5-50-87.1C7.4 6.4 6.1 6 5.5 6.4z"/><path fill="#FFF" d="M56.2 102.9S8.8 17.9 7.7 15.6c-1.2-2.3-6.5-17.4 4.2-2.8 2.7 3.6 49.9 87.1 49.9 87.1l-5.6 3z"/><path fill="#D0D8B2" d="M65.8 55.9s16.1 8.8 21 17.4L83.2 78l5.7.6 1.5 2.9s-10 10.6 11.1 17.5l18.3 6.5 34.4-21.8s-6.6-5.2-8-12c0 0 6.7-4.5 9.2-9.9 2.5-5.4 5.5-18.5 14.9-25.1 0 0-17.2-.1-28.5 14.6l-4.5 2-18.9-7.3s-6.4-2.6-13.4 5.7-8.3 10.2-8.3 10.2-24.6-8.4-30.9-6z"/><path fill="#FFF" d="M89.2 78.5L91 82s8.1.7 14.1-1.7l.3-1 .7-1.6s-11.7 1.5-16.9.8zM112.1 75.1s.4 3.6 7.2 2.8c6.8-.8 12.5-5.2 12.5-5.2l-.5-3s-7.5-2.4-12.1.9c-4.7 3.3-7.1 4.5-7.1 4.5z"/><path fill="#EDEDE4" d="M101.4 99l-6.7 6.3 3.7 2.4-5.6 5.6-1.5-3.7-25.8 12.2s7.8 29.9 16.3 32.6c0 0 12.1-3.5 21.5-13.4 0 0-2.4 17.4-16.1 28.7 0 0 4.3 5.9 16.3 3.9 0 0 13-41.2 3-72.5l-5.1-2.1z"/><path fill="#D6D4CB" d="M70.2 136.9s7.1 19.2 12.3 16.7c5.1-2.5 3.3-24.3 1.2-31.3 0 .1-14.1 3.9-13.5 14.6z"/><path fill="#AD714F" d="M106.9 101.4l12.8 4 8.9-6.3s-20.2 43.6 14.7 77l-25.7-.2.5-3.2-14.4-.6s12.8-37 3.2-70.7z"/><path fill="#EDEDE4" d="M158.9 82.3s-10.4-.2-17.8 5-23.2 16.3-16.7 55.8c10.4 41.4 42.1 47.5 69.7 38.2l-10.4-13.4-3.9-.2s-11.3-10.8-12.4-26.7c0 0 14.1 9.6 20.4 1.1 6.3-8.5 11.3-21.1 8.5-56.9 0 0-6.1 9.5-12.6 2.8 0 0-13 10.8-22.6-6.1l-2.2.4z"/><path fill="#D6D4CB" d="M159.9 103.6s19.4 5.9 28.2-13.1c0 0 7.1-.7 8.3-5.3 0 0 6 42.9-9.9 55.3-19.9 7.4-30.5-28.3-26.6-36.9z"/><path fill="#AD714F" d="M161.1 81.9s8.2 16.2 21.7 6.4l4.9 1.6s-4.1 17.8-28.4 13.5c0 0 .6-18.7 1.8-21.5z"/><path fill="#D0D8B2" d="M57.4 121.3l6 8.3h1.5l.2 5.5s5.4 2.1 6.6.1c1.2-2 2.8-4.3 4.3-4.3 0 0 1-3.4-2.4-6.5l3.7-.1 4.2 6.3s3.3-5.6 2.1-10.9c-1.1-5.3-7.2-11.5-7.2-11.5s-3-3.2-10.9 3.2v3.2c.1 0-5.2.3-8.1 6.7zM160.9 80s6.3 19.9 22.8 8c0 0 7.5 8.8 14.5-7.4 0 0 6.5-2.9 5.7-7.5-.7-4.6-1.7-13.8-1.7-13.8l-15.4-1.9.6-2.2s5.5.1 8.9-10.5l4.3-.7s-1-5.7-9.6-6.3c-8.6-.6-14.1 4.4-18.2 15.8S160.9 80 160.9 80z"/><path fill="#A89656" d="M65.7 55.9S83.3 66.6 86.8 73l6-4.2S81.1 57.7 65.7 55.9zM143.2 66.5s7-26.1 25.9-29.5c0 0-3.7 4.1-4.3 4.8-.6.7-8.8 17.6-10.9 19.4-2.1 1.9-5.7 6.9-10.7 5.3zM124.2 77c-3.2 1-7.3 1.3-10.8.3 0 0 5.4 6.4 12.3 3.3 6.8-3.1 6-7.6 6-7.6s-3.1 2.6-7.5 4zM91.1 82s9.5.3 14.1-1.7l-.1.4s-3.2.4-2.1 2.2l1.1.8-1.7 2.7c0 .1-6.5.5-11.3-4.4zM120.1 70.3s6.1-3.1 11.2-.6c0 0-.3-2.8-1.1-4.5 0 0-5.1 1.5-10.1 5.1z"/><path fill="#504B32" d="M119.5 70.7s-1.8 4.8 4.3 6.3c0 0 5.1-1.9 6.3-2.9 0 0 2.1-1.6-1.3-5.3 0 0-5.4-.9-9.3 1.9zM94.3 78.5s8.5.5 11.5-.6l-.6 2.5s-6.1 1.9-9 1.5c0 0-2-1.4-1.9-3.4z"/><path fill="#D6DFD8" d="M132.5 56.7s5.5 1.4 6.2 3l3.1-8.4s-4 1.3-9.3 5.4zM156.1 60.7s4 4 9.3 1.8c0 0-2.1 6.4-9.6 9.8 0 0 4.6 3.1 7.9 2l-4.3 7.4L153 83s-6.1-5.3-6.9-11.3c0-.1 7-3.9 10-11z"/><path fill="#CBD8E0" d="M55.1 104.5l1.9 3.2 2.1.3-.5 1.9 2.8 6.1 4.7-1.7-.5-2.9 3.8-2.3-1.9-3.6.3-2.5-3.2-5.6h-2.9l-.6 1.3.7 2.1c-.1 0-4-1.1-6.7 3.7zM72.5 133.8l3.7 5.8s4.9.1 7.9-5.3l-6.3-10.2-4.1.3s2.8 2.3 2.8 6.6c-.1.1-2.5-1.2-4 2.8z"/><path fill="#1D1D1B" d="M136.9 53.6s-12.1-6.3-21.7-6.6c-9.6-.4-21.9 21.9-21.9 21.9-6.5 3.7-9.2 8.8-9.2 8.8s7.8 1.2 20.3 0c0 0-.6-2.9-5.7-6.1 0 0 12.1 6.8 4.9 7.2-7.2.4-21.1-.4-21.1-.4s3.7-6.6 10.4-10.6c0 0 12.7-26 24.4-23.1 11.7 2.9 21.6 7.8 21.6 7.8l-2 1.1z"/><path fill="#1D1D1B" d="M96.3 62.7s-12.9-6.6-29.9-6.8c0 0 14.9 7.8 20.9 16.6l-.4 1S77.1 61.8 65 56.3c0 0 0-4.9 32.4 4.9l-1.1 1.5z"/><path fill="#1D1D1B" d="M66.4 55.9s15.2 2.2 26.8 12.3l-.8.6s-7.7-7.8-26-12.9zM121.7 62.2s-11.1 6.3-11.3 12.7c0 0 .6 1.2 5.3-2.5s13.7-8.4 17.6-7.2c0 0-4.3 0-11.3 4.3-7 4.3-14.1 10.4-12.3 4.3 1.6-6.2 9.4-11.1 12-11.6z"/><path fill="#1D1D1B" d="M114.2 66.6s-.8-4.1 7.2-10.4c0 0-8.4 4.7-8.2 11.9l1-1.5zM89.2 93.4c-6.3-4.7.8-12.3.8-12.3s.3.5.8.7c0 0-8.4 8.5 6 14.6 14.5 6.1 21.2 8 21.2 8s-20.4-4.7-28.8-11z"/><path fill="#1D1D1B" d="M88.7 78.6s1.2 7.6 12.6 8l1.2-.3s-12-.7-13.1-7.8l-.7.1zM100.6 67s3.7 14.9 9.4 9l-.2-1.1c0 .1-3.4 6.1-9.2-7.9z"/><path fill="#1D1D1B" d="M106.9 75.9s-2.5-5.8 2.8-9.9c.1 0-7.4 4-2.8 9.9z"/><path fill="#1D1D1B" d="M106.9 67.9s-1.1-6.2 4.4-10.5c0 0-6.7 3.2-4.8 11.7l.4-1.2z"/><path fill="#1D1D1B" d="M107.8 60.7s-.2-4.1 3.4-8.2c0 0-5.1 3.2-3.9 9.7l.5-1.5zM111.7 75.5s3.7 8.5 14.2 5.3 4.4-15.4 4.4-15.4 4.3 11.9-4.6 14.9c-8.9 3-13.5-5.5-13.5-5.5l-.5.7z"/><path fill="#1D1D1B" d="M114.9 78.7s2.5 7.1 16.7 5c0 0-11 .9-16.7-5z"/><path fill="#1D1D1B" d="M113.5 77.7s1.9 9 16.3 15.4h.9s-13.8-7.4-16.3-15.1l-.9-.3zM138.8 61.2s-2.7-8.6 7.4-15.7c10-7.1 16.7-8.8 25.5-9.3 0 0-9.1 4.7-13.7 20.1-4.7 15.4-14.5 16.7-14.5 16.7s0 6.4-5.1 9.6c0 0 3.2-3.4 4.7-10.8 0 0 8.8-1 13-13.5 4.2-12.5 10-19.1 13-20.8-.2-.1-26.2 1.4-30.3 23.7z"/><path fill="#1D1D1B" d="M140.6 51.8s-4.3.5-9.6 5.1c0 0 7.1 1 7.7 3.3l.2-.8s-1.8-2.4-5.6-2.9c0 0 4.5-3.8 7.3-4.7z"/><path fill="#1D1D1B" d="M134.9 54.8s3.6 1.2 4.1 2c0 0-.8-2.6-4.1-2zM104 83.9s-2.4 3.2-2.8 7.2c0 0 4.9 14.3 17.7 10 0 0-10.9 6.4-18.5-9.2 0 .1-1-4.1 3.6-8z"/><path fill="#1D1D1B" d="M100.6 91.4s4.9-.6 7.8 1.3c0 0 7.9-6.3 13.3-5.2l-1.2-1s-6.8-.3-12.1 5.5c0 0-3.2-1.9-7.5-1.4l-.3.8zM115.1 93.7s-6 .6-4 4.2 10.4 2.6 11.1 2c0 0-7.4 4.2-12.3-1.9-2.7-4.1 5.2-4.3 5.2-4.3zM109.3 112.9l-.1 1.6s15.5-11.1 17.6-13.2c2.2-2 2.2-3.5 2.2-3.5s-15.2 12.9-19.7 15.1zM145.8 71.9s1.8 8.1 6.5 11l2.2-.1s-6.3-4-7.9-11.1l-.8.2z"/><path fill="#1D1D1B" d="M122.3 95.2l5.6 3.6-.6.7zM120.3 97.6s2.1 1.8 4.1 2.1c.1.1-2.4 1.4-4.1-2.1zM110.1 90.7l-.7-3.1 1.7 2.4zM114.7 88.7L118 90l-1.9-1.8zM110.1 90.7l4.1 1.3-2.6-1.8zM111.4 80s-4.5-4-6.6.5c0 0-4.3.8-1.3 3.5.7.6 1.3.2 1.6-1.2 0 0 .2 2 2.5 2.3 0 0 2.5-5.1 3.8-2.3 0 0 3.6.8 3.8-2 .2-2.8-3.8-.8-3.8-.8zm3.2.8c-.4 1.9-2.7 1.6-2.7 1.6-1.7-3.1-4.6 2.2-4.6 2.2-2.3-1.1-2.1-2.6-2.1-2.6s-.8 1.6-1.3 1.5c-2.5-1.8 1.1-2.5 1.1-2.5 1.5-4.2 6.5-.5 6.5-.5 1.6-.7 3.5-1.6 3.1.3z"/><path fill="#1D1D1B" d="M106.4 77.3s-.8 1-.8 2.3l-.3.4c.1 0-.5-1.4 1.1-2.7zM107.9 77.1s.9-.3 1.9.5c0 0-.4-1.7-1.9-.5zM117.4 72s6.8-4.3 14.3-1.9v-.6c-.1-.1-6.4-3.7-14.3 2.5zM90.3 81.8s9.6.2 14.5-1.3c0 0-10.8 3.4-14.5 1.3z"/><path fill="#1D1D1B" d="M91.2 82.4s4.9 3.2 11.7.4l.4.6c0 .1-8.3 3.1-12.1-1zM113.5 77.1s10.2 2.8 17.9-4.9l.2 1.1s-10.2 8.1-18.1 3.8z"/><path fill="#1D1D1B" d="M115.3 79s10.2 2.1 15.3-2.3c0 0-5.3 5.9-15.3 2.3zM94 78.8s.4 3 2.3 3.2h1.1s-2.8-.4-2.6-3.4l-.8.2zM118.7 71.3s-.6 4 4.3 6l1.3-.4s-5.6-.6-4.5-6.6l-1.1 1zM128.9 69.2s2.1 3.6.6 4.9l1.1-1c.1 0-.2-4.1-1.7-3.9zM76.2 58.5s1.3 1.9.8 4.7l.8.8s.9-2.7-1.6-5.5zM79.6 60s1.3 2.4.8 5.9l.8 1s.9-3.5-1.6-6.9zM83.4 62.3s1.6 3 1 7.4l1 1.3c0-.1 1.2-4.4-2-8.7zM142.9 66.9s3-23.1 26.3-30.1c0 0-20.2 6.1-25.4 29.8 0 0 7.3-.3 12.8-9.1 0 0-5.6 11.6-13.7 9.4z"/><path fill="#1D1D1B" d="M146 58.7s4.6-.1 4.6 5.7l.7-.4c-.1 0-.7-7.4-5.3-5.3zM149.8 51.6s6.9-.3 6.8 6.5l.5-1.2c0 .1-.9-7.5-7.3-5.3zM154.1 46.7s4.2.5 4.8 4.8l.5-.7s-.2-5-5.3-4.1zM100.8 98.4l-7.9 7.4s11.2 2.2 12.9 14.6c0 0 .2-10.4-10.1-15.4l6.6-6-1.5-.6z"/><path fill="#1D1D1B" d="M97.8 107.2l-5.6 4.8.4 1.5 6.5-5.5z"/><path fill="#1D1D1B" d="M81 113.3s4.6.2 10.5-5.3c0 0 4.2 17.9 8.2 16.2 0 0-.2-5.2-.9-6.8-.8-1.6 6.8 13.8.2 9-6.6-4.9-7.7-16-7.7-16s-5.5 4.2-9.7 4.4l-.6-1.5zM159 81.4s-25.2.6-33.8 23.9c-6.3 17.1-4.6 61.5 25.5 76.1 10.9 5.3 25.9 5.4 45.1.6 0 0-9.4-9.9-11.8-15.1 0 0-34.8 3.9-48.6-20 0 0 7.7 23.7 47.3 21.2 0 0 6.6 10.4 10.1 12.7 0 0-44 12.3-59.6-17.8-15.6-30-15.4-77.8 25.5-80.5l.3-1.1z"/><path fill="#1D1D1B" d="M124.2 139.9s-1.7-13.8 4.9-23.6c6.6-9.8 24.8-22 32.2-36.3 7.4-14.3 13.1-27 14.8-31.6 1.7-4.6 4.9-9.4 15.4-9.4 6.1 0 8.6 4.9 8.6 4.9l-4.9-.2s.5 13.5-13.4 9.6c0 0 1.4 2.4 7.5 1.6 6.1-.8 7.7-10.1 7.7-10.1l5.5.2s-.8-7.1-12-7.5c0 0-12.1-2.8-18.4 15.1-6.3 17.9-15.1 34-27.8 45.9-12.5 11.8-25.4 22-20.1 41.4z"/><path fill="#1D1D1B" d="M129.7 108.9s8.8-14.2 22.3-16.7l1.9-2.4c.1.1-14.7 1.8-24.2 19.1zM122.3 69.5s-1.6 1.5-.4 3.5c1.3 2 3.3 2.1 5 1.4 1.8-.7 3.4-3.4 1.1-5.5 0 0-3.2 0-5.7.6zM96.5 78.7s0 3.1 3.6 2.9c3.6-.2 3-3 3-3l-6.6.1z"/><circle fill="#FFF" cx="125.7" cy="70.7" r="1.6"/><path fill="#FFF" d="M99 78.8c-.1.2-.1.3-.1.5 0 .8.6 1.4 1.4 1.4.8 0 1.4-.6 1.4-1.4 0-.2 0-.4-.1-.5H99z"/><path fill="#1D1D1B" d="M104.4 130.1s-.2 25.7-18.7 39.7c0 0 3.5 5.6 17.9 4.7 0 0 13-34 3.9-73.3l-1.9-1s10.9 31.7-2.9 72.6c0 0-9.9.6-14.4-3.1 0-.1 17.9-14.1 16.1-39.6zM140.4 142.6s10.3 10.5 19.8 9.1c0 0-9.3-.2-18.5-9.5l-1.3.4zM121.5 153.3s-.8 11.3-5.6 23c0 0 16.5.4 28 .8l-1.9-1.8s-18.5-1-23.3-.2c-.1-.1 4.4-14.7 2.8-21.8z"/><path fill="#1D1D1B" d="M103.4 172.7s10.9 0 13.8.6l1.2-1.6s-7.2-.6-14.6-.6l-.4 1.6zM156 60.2s5.4 3.2 10 1.7c0 0-3 8.8-9.3 10.4 0 0 4.1 2.1 7.2 1.3l-.7 1.1s-3.9 1.7-8.4-2.7c0 0 6.7-2.2 9.9-8.8 0 0-5.7 1.4-9-2.1l.3-.9z"/><path fill="#1D1D1B" d="M156.1 65.9s4.8 1.6 7.6.1l-1.6 1.7c.1 0-4.4.2-6-1.8zM147.8 70.9s3.4 7.5 11.7 9.5l.8-.3s-8.6-2.2-12.1-9.5l-.4.3z"/><path fill="#1D1D1B" d="M153.3 74.9s4.7 3.7 8.8 1.9l.3-.7c-.1.1-3.7 1.6-9.1-1.2zM145.1 99.4s-.7 10.1 8.5 23.3c0 0-7.6-11.1-6.5-25.2l-2 1.9zM110.4 133.3l12.9 5.3v-1.3l-13.1-5.7zM109.9 118.9l13.1 1.2.3-1.4-13.5-1.5zM110.1 123.8l12.4 2.4.2-1.1-12.9-2.8zM110.5 128.2l11.9 1.7.1-.9-12.1-2.3z"/><path fill="#1D1D1B" d="M153.1 90.5s-4.8 46.8 22.1 54.9c26.9 8.2 23.5-53.9 21.4-60.1l-.9 1.5s6.5 52.7-15.1 57.7c-25.1-.1-28-43.6-25.4-57.3l-2.1 3.3z"/><path fill="#1D1D1B" d="M160.3 80s-11.5 55.5 20.1 61.9c16.8 2.4 16.3-29.1 16.3-29.1s-3.9 32.8-17.7 27.8c-13.8-5-24.6-20.3-16.2-64.7l-2.5 4.1z"/><path fill="#1D1D1B" d="M159 103.9s20.9 5.6 29.5-13.2l-1.2-.9s-8.9 19.4-28.2 12.6l-.1 1.5z"/><path fill="#1D1D1B" d="M161.3 82.8s9.1 18 23 4.9l-1.9-.3s-12.6 11.2-21-7.4l-.1 2.8z"/><path fill="#1D1D1B" d="M160.7 86.8s6.2 12.2 21.2 11.7l1.3-1.2s-16.5 1.6-22.6-12.2v1.7z"/><path fill="#1D1D1B" d="M159.8 91.1s5.5 10.7 11.3 12.6l3-.9s-9.3-2.1-14.2-13.7v2zM166.9 93.3s9.9 6.7 19.9-.6l.7-1.6s-8.1 7.3-20.6 2.2zM169.1 87.6s-7.9-11 5.8-13.8c9.6-1.5 12.8.3 12.8.3l-3.6 3.7s4.3 3.1 3.3 6.2-4.6 5.5-8.8 3.1c0 0 5.6.9 7-2.5 1.3-3.4-2.5-5.6-2.5-5.6s-3.3-1.2 1.5-3.6c0 0-22.3-4-15.4 10.4-.1 0 .7 1.2-.1 1.8z"/><path fill="#1D1D1B" d="M183.1 88.3s6.1 6.2 12.6-1.5c5.8-6.7 1.8-11.9 1.8-11.9l-4.9-.3s-4.6-4.2-.6-8.8c0 0-6.8 5.2.4 10.1l3.7.4s3 7.3-4.9 11.9c-4.2 2.8-6.5-1.6-6.5-1.6l-1.6 1.7zM189.5 54.5l-7.7 11.2 5-11.1z"/><path fill="#1D1D1B" d="M187.1 56.8s8.9 1.9 16.5.9c0 0-1.5 5.2-.1 8.5 1.3 3.3 3.4 9.6-5.2 16v-2.4s5.6-3.6 4.6-8.9c-1-5.3-1.3-10.7-1.3-10.7s-9.9.3-14.7-2.4l.2-1zM166.2 139.8s.9 17.2 11.9 27.8h2.4s-12.5-12.9-12.8-26.7l-1.5-1.1zM68.7 136.4s8 20.9 14.4 18.7c6.4-2.2 16.6-8 20.6-14.5l.1-1.3s-20.3 22.1-26.4 11c-6.1-11.1-7-13.5-7-13.5l-1.7-.4z"/><path fill="#1D1D1B" d="M83.7 125.9s4.2 24.9-1.8 27.8c0 0 5.9 2.1 4.6-15.3-1.3-17.4-2.5-17.7-2.5-17.7l-.3 5.2z"/><path fill="#1D1D1B" d="M82 130s4-8.6.6-14.2-6.1-8.6-6.1-8.6-7.1-.9-11.7 4l.6 6.2s5 3 5.9 7.3h7.3l-1.6-2.8s4-3.7-1-9.6l-1.3.3s5.2 4.9 1.2 8.6l1.3 2.2-4.6.3s-1-4.6-5.5-6.4l-.7-5.9s4.8-3.7 9.8-2.8c0 0 6.2 7.9 6.5 9.6.2 1.7.5 8.8-.7 11.8z"/><path fill="#1D1D1B" d="M65.7 114.1s-4.9-.1-9.5 7.3c0 0 6.2 6.1 6.4 8.6h2.1l.1-.9-1.3-.1s-1.3-4.2-5-6.7c0 0 .3-4.6 7.4-7l-.2-1.2z"/><path fill="#1D1D1B" d="M70.4 121.7s-4.6 1-7 4.3c0 0 1.8 4.6 1.3 7.4l-.3 2.2s6.8 3.9 8.5-1.9c0 0 1.2-2.4 3.6-2.2 0 0 1-5-2.8-7.4l-1.5.1s3.6 2.2 3.7 6.1c0 0-3 .4-3.6 2.1-.6 1.6-.7 3.9-3.7 3.1l-3-.7s.6-6.1-.7-8.2c0 0 1.8-2.7 6.2-3.7M77.7 122.7l3.3.4-3.4-2.4-1 .3c-.1.1-.7 1 1.1 1.7zM61.1 116.9l-3.4-6.7s2.8-6.7 10.1-5l2.2 3.3-1.2.6-1.6-2.8s-4.5-1.9-8.3 4.2l3.3 5.6-1.1.8z"/><path fill="#1D1D1B" d="M59.2 108.5l-2.8-.6-1.8-3.6s1.8-3.9 6.4-4l-.7-1.3.9-1.8 3.4-.3 3.6 5.9-.6 2.8h-.9l.6-2.8-3-5-2.1-.1-1 1 3.9 6.5h-1l-2.8-4.5s-3.7.4-5.6 3.6l1.6 2.8 3 .9-1.1.5z"/><path fill="#1D1D1B" d="M57.2 107.2s1.9-3.3 6.1-3.6v-.7c0-.1-5.8.4-6.1 4.3zM78.2 123.9H77l6.5 10.4s-6.2-.1-7.6 4.6l-3-5.2-.7.9 3.4 5.5s4.9.9 8.8-5.6l-6.2-10.6zm-1.5 15.5s1-4.6 6.4-4.3c0 0-.8 2.6-6.4 4.3z"/><path fill="#1D1D1B" d="M74.2 136.5s2.1-5.5 8.5-5l-.9-.9s-5.5-.3-8.2 5l.6.9zM76.4 129s1.5-.9 3.4-.9l-.3-.9s-2.2.1-3.4.6l.3 1.2zM92.2 86.6s2.8.9 6.9-.3l-.7-.4s-3.4.8-6.2.7zM106.4 100.9l15 4.2-1.4.7-13.2-4z"/></svg>